<?xml version="1.0" encoding="UTF-8" standalone="no"?>
<!DOCTYPE svg PUBLIC "-//W3C//DTD SVG 1.1//EN"
 "http://www.w3.org/Graphics/SVG/1.1/DTD/svg11.dtd">
<!-- Generated by graphviz version 2.40.1 (20161225.0304)
 -->
<!-- Title: dependencies Pages: 1 -->
<svg width="1562pt" height="284pt"
 viewBox="0.00 0.00 1562.00 284.00" xmlns="http://www.w3.org/2000/svg" xmlns:xlink="http://www.w3.org/1999/xlink">
<g id="graph0" class="graph" transform="scale(1 1) rotate(0) translate(4 280)">
<title>dependencies</title>
<polygon fill="#ffffff" stroke="transparent" points="-4,4 -4,-280 1558,-280 1558,4 -4,4"/>
<text text-anchor="start" x="756.0091" y="-42.4" font-family="sans-serif" font-weight="bold" font-size="14.00" fill="#000000">Legend</text>
<polygon fill="#ffffb3" stroke="transparent" points="543,-10 543,-30 563,-30 563,-10 543,-10"/>
<text text-anchor="start" x="566.629" y="-15.4" font-family="sans-serif" font-size="14.00" fill="#000000"> &#160;Declarations</text>
<polygon fill="#8dd3c7" stroke="transparent" points="656,-10 656,-30 676,-30 676,-10 656,-10"/>
<text text-anchor="start" x="679.7251" y="-15.4" font-family="sans-serif" font-size="14.00" fill="#000000"> &#160;Module</text>
<polygon fill="#80b1d3" stroke="transparent" points="742,-10 742,-30 762,-30 762,-10 742,-10"/>
<text text-anchor="start" x="765.7812" y="-15.4" font-family="sans-serif" font-size="14.00" fill="#000000"> &#160;Bootstrap</text>
<polygon fill="#fdb462" stroke="transparent" points="839,-10 839,-30 859,-30 859,-10 839,-10"/>
<text text-anchor="start" x="862.6732" y="-15.4" font-family="sans-serif" font-size="14.00" fill="#000000"> &#160;Providers</text>
<polygon fill="#fb8072" stroke="transparent" points="935,-10 935,-30 955,-30 955,-10 935,-10"/>
<text text-anchor="start" x="958.7258" y="-15.4" font-family="sans-serif" font-size="14.00" fill="#000000"> &#160;Exports</text>
<g id="clust1" class="cluster">
<title>cluster_AppModule</title>
<polygon fill="none" stroke="#000000" stroke-dasharray="1,5" points="8,-70 8,-268 1546,-268 1546,-70 8,-70"/>
</g>
<g id="clust2" class="cluster">
<title>cluster_AppModule_declarations</title>
<polygon fill="none" stroke="#000000" points="352,-78 352,-130 1538,-130 1538,-78 352,-78"/>
</g>
<g id="clust12" class="cluster">
<title>cluster_AppModule_imports</title>
<polygon fill="none" stroke="#000000" points="200,-78 200,-130 344,-130 344,-78 200,-78"/>
</g>
<g id="clust14" class="cluster">
<title>cluster_AppModule_bootstrap</title>
<polygon fill="none" stroke="#000000" points="765,-208 765,-260 889,-260 889,-208 765,-208"/>
</g>
<g id="clust15" class="cluster">
<title>cluster_AppModule_providers</title>
<polygon fill="none" stroke="#000000" points="16,-78 16,-130 192,-130 192,-78 16,-78"/>
</g>
<!-- AppComponent -->
<g id="node1" class="node">
<title>AppComponent</title>
<polygon fill="#ffffb3" stroke="#000000" points="1529.9399,-122 1424.0601,-122 1424.0601,-86 1529.9399,-86 1529.9399,-122"/>
<text text-anchor="middle" x="1477" y="-99.8" font-family="Times,serif" font-size="14.00" fill="#000000">AppComponent</text>
</g>
<!-- AppModule -->
<g id="node10" class="node">
<title>AppModule</title>
<polygon fill="#8dd3c7" stroke="#000000" points="868.6571,-187 865.6571,-191 844.6571,-191 841.6571,-187 785.3429,-187 785.3429,-151 868.6571,-151 868.6571,-187"/>
<text text-anchor="middle" x="827" y="-164.8" font-family="Times,serif" font-size="14.00" fill="#000000">AppModule</text>
</g>
<!-- AppComponent&#45;&gt;AppModule -->
<g id="edge1" class="edge">
<title>AppComponent&#45;&gt;AppModule</title>
<path fill="none" stroke="#000000" d="M1477,-122.2479C1477,-145.0179 1477,-181 1477,-181 1477,-181 879.1475,-181 879.1475,-181"/>
<polygon fill="#000000" stroke="#000000" points="879.1475,-177.5001 869.1475,-181 879.1475,-184.5001 879.1475,-177.5001"/>
</g>
<!-- MenuComponent -->
<g id="node2" class="node">
<title>MenuComponent</title>
<polygon fill="#ffffb3" stroke="#000000" points="1405.9916,-122 1292.0084,-122 1292.0084,-86 1405.9916,-86 1405.9916,-122"/>
<text text-anchor="middle" x="1349" y="-99.8" font-family="Times,serif" font-size="14.00" fill="#000000">MenuComponent</text>
</g>
<!-- MenuComponent&#45;&gt;AppModule -->
<g id="edge2" class="edge">
<title>MenuComponent&#45;&gt;AppModule</title>
<path fill="none" stroke="#000000" d="M1349,-122.2843C1349,-143.3211 1349,-175 1349,-175 1349,-175 878.8351,-175 878.8351,-175"/>
<polygon fill="#000000" stroke="#000000" points="878.8351,-171.5001 868.8351,-175 878.835,-178.5001 878.8351,-171.5001"/>
</g>
<!-- ListItemComponent -->
<g id="node3" class="node">
<title>ListItemComponent</title>
<polygon fill="#ffffb3" stroke="#000000" points="1274.2674,-122 1145.7326,-122 1145.7326,-86 1274.2674,-86 1274.2674,-122"/>
<text text-anchor="middle" x="1210" y="-99.8" font-family="Times,serif" font-size="14.00" fill="#000000">ListItemComponent</text>
</g>
<!-- ListItemComponent&#45;&gt;AppModule -->
<g id="edge3" class="edge">
<title>ListItemComponent&#45;&gt;AppModule</title>
<path fill="none" stroke="#000000" d="M1210,-122.1061C1210,-141.3391 1210,-169 1210,-169 1210,-169 878.7168,-169 878.7168,-169"/>
<polygon fill="#000000" stroke="#000000" points="878.7168,-165.5001 868.7168,-169 878.7168,-172.5001 878.7168,-165.5001"/>
</g>
<!-- ModalComponent -->
<g id="node4" class="node">
<title>ModalComponent</title>
<polygon fill="#ffffb3" stroke="#000000" points="1127.8823,-122 1010.1177,-122 1010.1177,-86 1127.8823,-86 1127.8823,-122"/>
<text text-anchor="middle" x="1069" y="-99.8" font-family="Times,serif" font-size="14.00" fill="#000000">ModalComponent</text>
</g>
<!-- ModalComponent&#45;&gt;AppModule -->
<g id="edge4" class="edge">
<title>ModalComponent&#45;&gt;AppModule</title>
<path fill="none" stroke="#000000" d="M1069,-122.0225C1069,-139.3734 1069,-163 1069,-163 1069,-163 878.8769,-163 878.8769,-163"/>
<polygon fill="#000000" stroke="#000000" points="878.8769,-159.5001 868.8769,-163 878.8769,-166.5001 878.8769,-159.5001"/>
</g>
<!-- FormComponent -->
<g id="node5" class="node">
<title>FormComponent</title>
<polygon fill="#ffffb3" stroke="#000000" points="991.6667,-122 880.3333,-122 880.3333,-86 991.6667,-86 991.6667,-122"/>
<text text-anchor="middle" x="936" y="-99.8" font-family="Times,serif" font-size="14.00" fill="#000000">FormComponent</text>
</g>
<!-- FormComponent&#45;&gt;AppModule -->
<g id="edge5" class="edge">
<title>FormComponent&#45;&gt;AppModule</title>
<path fill="none" stroke="#000000" d="M936.6513,-122.2396C936.6513,-137.5706 936.6513,-157 936.6513,-157 936.6513,-157 878.7673,-157 878.7673,-157"/>
<polygon fill="#000000" stroke="#000000" points="878.7673,-153.5001 868.7673,-157 878.7672,-160.5001 878.7673,-153.5001"/>
</g>
<!-- FilterPipe -->
<g id="node6" class="node">
<title>FilterPipe</title>
<polygon fill="#ffffb3" stroke="#000000" points="862.7177,-122 791.2823,-122 791.2823,-86 862.7177,-86 862.7177,-122"/>
<text text-anchor="middle" x="827" y="-99.8" font-family="Times,serif" font-size="14.00" fill="#000000">FilterPipe</text>
</g>
<!-- FilterPipe&#45;&gt;AppModule -->
<g id="edge6" class="edge">
<title>FilterPipe&#45;&gt;AppModule</title>
<path fill="none" stroke="#000000" d="M827,-122.1061C827,-122.1061 827,-140.991 827,-140.991"/>
<polygon fill="#000000" stroke="#000000" points="823.5001,-140.9909 827,-150.991 830.5001,-140.991 823.5001,-140.9909"/>
</g>
<!-- StateDirective -->
<g id="node7" class="node">
<title>StateDirective</title>
<polygon fill="#ffffb3" stroke="#000000" points="773.0758,-122 676.9242,-122 676.9242,-86 773.0758,-86 773.0758,-122"/>
<text text-anchor="middle" x="725" y="-99.8" font-family="Times,serif" font-size="14.00" fill="#000000">StateDirective</text>
</g>
<!-- StateDirective&#45;&gt;AppModule -->
<g id="edge7" class="edge">
<title>StateDirective&#45;&gt;AppModule</title>
<path fill="none" stroke="#000000" d="M724.7463,-122.2396C724.7463,-137.5706 724.7463,-157 724.7463,-157 724.7463,-157 775.1145,-157 775.1145,-157"/>
<polygon fill="#000000" stroke="#000000" points="775.1145,-160.5001 785.1145,-157 775.1144,-153.5001 775.1145,-160.5001"/>
</g>
<!-- HomeComponent -->
<g id="node8" class="node">
<title>HomeComponent</title>
<polygon fill="#ffffb3" stroke="#000000" points="658.5451,-122 543.4549,-122 543.4549,-86 658.5451,-86 658.5451,-122"/>
<text text-anchor="middle" x="601" y="-99.8" font-family="Times,serif" font-size="14.00" fill="#000000">HomeComponent</text>
</g>
<!-- HomeComponent&#45;&gt;AppModule -->
<g id="edge8" class="edge">
<title>HomeComponent&#45;&gt;AppModule</title>
<path fill="none" stroke="#000000" d="M601,-122.0225C601,-139.3734 601,-163 601,-163 601,-163 775.2847,-163 775.2847,-163"/>
<polygon fill="#000000" stroke="#000000" points="775.2848,-166.5001 785.2847,-163 775.2847,-159.5001 775.2848,-166.5001"/>
</g>
<!-- PageNotFoundComponent -->
<g id="node9" class="node">
<title>PageNotFoundComponent</title>
<polygon fill="#ffffb3" stroke="#000000" points="525.8243,-122 360.1757,-122 360.1757,-86 525.8243,-86 525.8243,-122"/>
<text text-anchor="middle" x="443" y="-99.8" font-family="Times,serif" font-size="14.00" fill="#000000">PageNotFoundComponent</text>
</g>
<!-- PageNotFoundComponent&#45;&gt;AppModule -->
<g id="edge9" class="edge">
<title>PageNotFoundComponent&#45;&gt;AppModule</title>
<path fill="none" stroke="#000000" d="M443,-122.1061C443,-141.3391 443,-169 443,-169 443,-169 775.1743,-169 775.1743,-169"/>
<polygon fill="#000000" stroke="#000000" points="775.1743,-172.5001 785.1743,-169 775.1742,-165.5001 775.1743,-172.5001"/>
</g>
<!-- AppComponent  -->
<g id="node12" class="node">
<title>AppComponent </title>
<polygon fill="#80b1d3" stroke="#000000" points="881.439,-252 772.561,-252 772.561,-216 881.439,-216 881.439,-252"/>
<text text-anchor="middle" x="827" y="-229.8" font-family="Times,serif" font-size="14.00" fill="#000000">AppComponent </text>
</g>
<!-- AppModule&#45;&gt;AppComponent  -->
<g id="edge11" class="edge">
<title>AppModule&#45;&gt;AppComponent </title>
<path fill="none" stroke="#000000" stroke-dasharray="1,5" d="M827,-187.1061C827,-187.1061 827,-205.991 827,-205.991"/>
<polygon fill="#000000" stroke="#000000" points="823.5001,-205.9909 827,-215.991 830.5001,-205.991 823.5001,-205.9909"/>
</g>
<!-- AppRoutingModule -->
<g id="node11" class="node">
<title>AppRoutingModule</title>
<polygon fill="#8dd3c7" stroke="#000000" points="336.2744,-122 333.2744,-126 312.2744,-126 309.2744,-122 207.7256,-122 207.7256,-86 336.2744,-86 336.2744,-122"/>
<text text-anchor="middle" x="272" y="-99.8" font-family="Times,serif" font-size="14.00" fill="#000000">AppRoutingModule</text>
</g>
<!-- AppRoutingModule&#45;&gt;AppModule -->
<g id="edge10" class="edge">
<title>AppRoutingModule&#45;&gt;AppModule</title>
<path fill="none" stroke="#000000" d="M272,-122.2843C272,-143.3211 272,-175 272,-175 272,-175 775.2848,-175 775.2848,-175"/>
<polygon fill="#000000" stroke="#000000" points="775.2848,-178.5001 785.2848,-175 775.2848,-171.5001 775.2848,-178.5001"/>
</g>
<!-- CollectionService -->
<g id="node13" class="node">
<title>CollectionService</title>
<ellipse fill="#fdb462" stroke="#000000" cx="104" cy="-104" rx="80.4519" ry="18"/>
<text text-anchor="middle" x="104" y="-99.8" font-family="Times,serif" font-size="14.00" fill="#000000">CollectionService</text>
</g>
<!-- CollectionService&#45;&gt;AppModule -->
<g id="edge12" class="edge">
<title>CollectionService&#45;&gt;AppModule</title>
<path fill="none" stroke="#000000" d="M104,-122.2479C104,-145.0179 104,-181 104,-181 104,-181 775.2679,-181 775.2679,-181"/>
<polygon fill="#000000" stroke="#000000" points="775.2679,-184.5001 785.2679,-181 775.2678,-177.5001 775.2679,-184.5001"/>
</g>
</g>
</svg>
